<svg xmlns="http://www.w3.org/2000/svg" xmlns:xlink="http://www.w3.org/1999/xlink" width="500" zoomAndPan="magnify" viewBox="0 0 375 374.999991" height="500" preserveAspectRatio="xMidYMid meet" version="1.0"><defs><g/><clipPath id="ea9dad5d01"><path d="M 101.925781 177.640625 L 125.757812 177.640625 L 125.757812 197.359375 L 101.925781 197.359375 Z M 101.925781 177.640625 " clip-rule="nonzero"/></clipPath><clipPath id="80c6d1bb20"><path d="M 103 177.640625 L 113 177.640625 L 113 187 L 103 187 Z M 103 177.640625 " clip-rule="nonzero"/></clipPath><clipPath id="9a8eddab12"><path d="M 100.148438 183 L 108 183 L 108 193 L 100.148438 193 Z M 100.148438 183 " clip-rule="nonzero"/></clipPath><clipPath id="992ac80a14"><path d="M 115 185 L 122.648438 185 L 122.648438 195 L 115 195 Z M 115 185 " clip-rule="nonzero"/></clipPath><clipPath id="fc786f5bce"><path d="M 110 191 L 120 191 L 120 200.140625 L 110 200.140625 Z M 110 191 " clip-rule="nonzero"/></clipPath></defs><g fill="#000000" fill-opacity="1"><g transform="translate(50.046316, 206.734703)"><g><path d="M 18.96875 -35.796875 C 24.8125 -35.796875 29.269531 -34.460938 32.34375 -31.796875 C 35.414062 -29.128906 36.953125 -25.046875 36.953125 -19.546875 L 36.953125 0 L 25.46875 0 L 25.46875 -4.546875 C 23.6875 -1.128906 20.21875 0.578125 15.0625 0.578125 C 12.34375 0.578125 9.984375 0.101562 7.984375 -0.84375 C 5.992188 -1.789062 4.488281 -3.078125 3.46875 -4.703125 C 2.457031 -6.328125 1.953125 -8.179688 1.953125 -10.265625 C 1.953125 -13.597656 3.226562 -16.179688 5.78125 -18.015625 C 8.332031 -19.859375 12.273438 -20.78125 17.609375 -20.78125 L 24.625 -20.78125 C 24.40625 -24.507812 21.910156 -26.375 17.140625 -26.375 C 15.453125 -26.375 13.742188 -26.101562 12.015625 -25.5625 C 10.285156 -25.019531 8.8125 -24.269531 7.59375 -23.3125 L 3.4375 -31.703125 C 5.382812 -32.992188 7.753906 -34 10.546875 -34.71875 C 13.347656 -35.4375 16.15625 -35.796875 18.96875 -35.796875 Z M 18.515625 -7.203125 C 19.941406 -7.203125 21.195312 -7.546875 22.28125 -8.234375 C 23.363281 -8.929688 24.144531 -9.953125 24.625 -11.296875 L 24.625 -14.359375 L 19.296875 -14.359375 C 15.703125 -14.359375 13.90625 -13.164062 13.90625 -10.78125 C 13.90625 -9.695312 14.316406 -8.828125 15.140625 -8.171875 C 15.960938 -7.523438 17.085938 -7.203125 18.515625 -7.203125 Z M 18.515625 -7.203125 "/></g></g></g><g fill="#000000" fill-opacity="1"><g transform="translate(85.90206, 206.734703)"><g><path d="M 26.109375 -35.796875 C 29.316406 -35.796875 32.226562 -35.046875 34.84375 -33.546875 C 37.46875 -32.054688 39.546875 -29.9375 41.078125 -27.1875 C 42.617188 -24.4375 43.390625 -21.242188 43.390625 -17.609375 C 43.390625 -13.960938 42.617188 -10.765625 41.078125 -8.015625 C 39.546875 -5.265625 37.46875 -3.144531 34.84375 -1.65625 C 32.226562 -0.164062 29.316406 0.578125 26.109375 0.578125 C 21.992188 0.578125 18.722656 -0.65625 16.296875 -3.125 L 16.296875 12.59375 L 3.96875 12.59375 L 3.96875 -35.203125 L 15.71875 -35.203125 L 15.71875 -31.703125 C 18.007812 -34.429688 21.472656 -35.796875 26.109375 -35.796875 Z M 23.515625 -9.21875 C 25.679688 -9.21875 27.457031 -9.960938 28.84375 -11.453125 C 30.226562 -12.953125 30.921875 -15.003906 30.921875 -17.609375 C 30.921875 -20.203125 30.226562 -22.242188 28.84375 -23.734375 C 27.457031 -25.234375 25.679688 -25.984375 23.515625 -25.984375 C 21.347656 -25.984375 19.570312 -25.234375 18.1875 -23.734375 C 16.800781 -22.242188 16.109375 -20.203125 16.109375 -17.609375 C 16.109375 -15.003906 16.800781 -12.953125 18.1875 -11.453125 C 19.570312 -9.960938 21.347656 -9.21875 23.515625 -9.21875 Z M 23.515625 -9.21875 "/></g></g></g><g fill="#000000" fill-opacity="1"><g transform="translate(126.109846, 206.734703)"><g><path d="M 39.953125 -17.53125 C 39.953125 -17.445312 39.882812 -16.429688 39.75 -14.484375 L 14.15625 -14.484375 C 14.675781 -12.660156 15.679688 -11.257812 17.171875 -10.28125 C 18.671875 -9.3125 20.546875 -8.828125 22.796875 -8.828125 C 24.484375 -8.828125 25.941406 -9.066406 27.171875 -9.546875 C 28.410156 -10.023438 29.660156 -10.804688 30.921875 -11.890625 L 37.40625 -5.125 C 33.988281 -1.320312 28.988281 0.578125 22.40625 0.578125 C 18.289062 0.578125 14.675781 -0.195312 11.5625 -1.75 C 8.445312 -3.3125 6.03125 -5.476562 4.3125 -8.25 C 2.601562 -11.019531 1.75 -14.160156 1.75 -17.671875 C 1.75 -21.128906 2.582031 -24.234375 4.25 -26.984375 C 5.914062 -29.734375 8.222656 -31.890625 11.171875 -33.453125 C 14.117188 -35.015625 17.429688 -35.796875 21.109375 -35.796875 C 24.617188 -35.796875 27.800781 -35.066406 30.65625 -33.609375 C 33.507812 -32.160156 35.769531 -30.0625 37.4375 -27.3125 C 39.113281 -24.5625 39.953125 -21.300781 39.953125 -17.53125 Z M 21.171875 -27.015625 C 19.265625 -27.015625 17.671875 -26.472656 16.390625 -25.390625 C 15.117188 -24.304688 14.3125 -22.835938 13.96875 -20.984375 L 28.390625 -20.984375 C 28.035156 -22.835938 27.21875 -24.304688 25.9375 -25.390625 C 24.664062 -26.472656 23.078125 -27.015625 21.171875 -27.015625 Z M 21.171875 -27.015625 "/></g></g></g><g fill="#000000" fill-opacity="1"><g transform="translate(162.874973, 206.734703)"><g><path d="M 15.71875 -30.984375 C 16.976562 -32.585938 18.613281 -33.789062 20.625 -34.59375 C 22.632812 -35.394531 24.941406 -35.796875 27.546875 -35.796875 L 27.546875 -24.6875 C 26.410156 -24.8125 25.476562 -24.875 24.75 -24.875 C 22.101562 -24.875 20.03125 -24.160156 18.53125 -22.734375 C 17.039062 -21.304688 16.296875 -19.117188 16.296875 -16.171875 L 16.296875 0 L 3.96875 0 L 3.96875 -35.203125 L 15.71875 -35.203125 Z M 15.71875 -30.984375 "/></g></g></g><g fill="#000000" fill-opacity="1"><g transform="translate(186.713833, 206.734703)"><g><path d="M 28.25 -1.421875 C 27.21875 -0.773438 25.953125 -0.28125 24.453125 0.0625 C 22.960938 0.40625 21.375 0.578125 19.6875 0.578125 C 15.09375 0.578125 11.5625 -0.546875 9.09375 -2.796875 C 6.625 -5.046875 5.390625 -8.398438 5.390625 -12.859375 L 5.390625 -24.6875 L 0.265625 -24.6875 L 0.265625 -33.90625 L 5.390625 -33.90625 L 5.390625 -43.0625 L 17.734375 -43.0625 L 17.734375 -33.90625 L 25.78125 -33.90625 L 25.78125 -24.6875 L 17.734375 -24.6875 L 17.734375 -12.984375 C 17.734375 -11.734375 18.066406 -10.75 18.734375 -10.03125 C 19.410156 -9.320312 20.3125 -8.96875 21.4375 -8.96875 C 22.863281 -8.96875 24.117188 -9.332031 25.203125 -10.0625 Z M 28.25 -1.421875 "/></g></g></g><g fill="#000000" fill-opacity="1"><g transform="translate(210.812516, 206.734703)"><g><path d="M 40.984375 -35.203125 L 40.984375 0 L 29.234375 0 L 29.234375 -3.765625 C 27.929688 -2.335938 26.367188 -1.253906 24.546875 -0.515625 C 22.734375 0.210938 20.804688 0.578125 18.765625 0.578125 C 14.222656 0.578125 10.597656 -0.757812 7.890625 -3.4375 C 5.179688 -6.125 3.828125 -10.15625 3.828125 -15.53125 L 3.828125 -35.203125 L 16.171875 -35.203125 L 16.171875 -17.53125 C 16.171875 -14.894531 16.664062 -12.96875 17.65625 -11.75 C 18.65625 -10.539062 20.109375 -9.9375 22.015625 -9.9375 C 23.960938 -9.9375 25.550781 -10.617188 26.78125 -11.984375 C 28.019531 -13.347656 28.640625 -15.4375 28.640625 -18.25 L 28.640625 -35.203125 Z M 40.984375 -35.203125 "/></g></g></g><g fill="#000000" fill-opacity="1"><g transform="translate(250.825454, 206.734703)"><g><path d="M 15.71875 -30.984375 C 16.976562 -32.585938 18.613281 -33.789062 20.625 -34.59375 C 22.632812 -35.394531 24.941406 -35.796875 27.546875 -35.796875 L 27.546875 -24.6875 C 26.410156 -24.8125 25.476562 -24.875 24.75 -24.875 C 22.101562 -24.875 20.03125 -24.160156 18.53125 -22.734375 C 17.039062 -21.304688 16.296875 -19.117188 16.296875 -16.171875 L 16.296875 0 L 3.96875 0 L 3.96875 -35.203125 L 15.71875 -35.203125 Z M 15.71875 -30.984375 "/></g></g></g><g fill="#000000" fill-opacity="1"><g transform="translate(274.664314, 206.734703)"><g><path d="M 39.953125 -17.53125 C 39.953125 -17.445312 39.882812 -16.429688 39.75 -14.484375 L 14.15625 -14.484375 C 14.675781 -12.660156 15.679688 -11.257812 17.171875 -10.28125 C 18.671875 -9.3125 20.546875 -8.828125 22.796875 -8.828125 C 24.484375 -8.828125 25.941406 -9.066406 27.171875 -9.546875 C 28.410156 -10.023438 29.660156 -10.804688 30.921875 -11.890625 L 37.40625 -5.125 C 33.988281 -1.320312 28.988281 0.578125 22.40625 0.578125 C 18.289062 0.578125 14.675781 -0.195312 11.5625 -1.75 C 8.445312 -3.3125 6.03125 -5.476562 4.3125 -8.25 C 2.601562 -11.019531 1.75 -14.160156 1.75 -17.671875 C 1.75 -21.128906 2.582031 -24.234375 4.25 -26.984375 C 5.914062 -29.734375 8.222656 -31.890625 11.171875 -33.453125 C 14.117188 -35.015625 17.429688 -35.796875 21.109375 -35.796875 C 24.617188 -35.796875 27.800781 -35.066406 30.65625 -33.609375 C 33.507812 -32.160156 35.769531 -30.0625 37.4375 -27.3125 C 39.113281 -24.5625 39.953125 -21.300781 39.953125 -17.53125 Z M 21.171875 -27.015625 C 19.265625 -27.015625 17.671875 -26.472656 16.390625 -25.390625 C 15.117188 -24.304688 14.3125 -22.835938 13.96875 -20.984375 L 28.390625 -20.984375 C 28.035156 -22.835938 27.21875 -24.304688 25.9375 -25.390625 C 24.664062 -26.472656 23.078125 -27.015625 21.171875 -27.015625 Z M 21.171875 -27.015625 "/></g></g></g><g clip-path="url(#ea9dad5d01)"><path fill="#000000" d="M 101.925781 177.640625 L 125.726562 177.640625 L 125.726562 197.359375 L 101.925781 197.359375 Z M 101.925781 177.640625 " fill-opacity="1" fill-rule="nonzero"/></g><g clip-path="url(#80c6d1bb20)"><path fill="#ffffff" d="M 106.167969 186.242188 C 106.238281 186.363281 106.332031 186.453125 106.449219 186.523438 C 106.570312 186.589844 106.695312 186.625 106.832031 186.625 C 106.96875 186.625 107.097656 186.589844 107.21875 186.523438 C 107.335938 186.453125 107.429688 186.363281 107.5 186.242188 L 108.441406 184.621094 C 108.457031 184.566406 108.480469 184.519531 108.507812 184.46875 L 111.980469 178.453125 C 112.085938 178.273438 112.089844 178.089844 111.984375 177.90625 C 111.878906 177.726562 111.71875 177.636719 111.507812 177.640625 C 109.132812 177.636719 106.96875 178.3125 105.015625 179.671875 C 104.757812 179.847656 104.542969 180.066406 104.367188 180.328125 C 104.195312 180.585938 104.074219 180.867188 104.003906 181.171875 C 103.9375 181.480469 103.925781 181.785156 103.972656 182.09375 C 104.019531 182.402344 104.121094 182.695312 104.277344 182.964844 Z M 106.167969 186.242188 " fill-opacity="1" fill-rule="nonzero"/></g><g clip-path="url(#9a8eddab12)"><path fill="#ffffff" d="M 102.671875 192.25 L 106.4375 192.25 C 106.574219 192.246094 106.699219 192.214844 106.820312 192.144531 C 106.9375 192.074219 107.03125 191.980469 107.097656 191.863281 C 107.167969 191.746094 107.203125 191.617188 107.203125 191.480469 C 107.203125 191.34375 107.167969 191.214844 107.101562 191.097656 L 106.121094 189.410156 C 106.101562 189.386719 106.089844 189.363281 106.074219 189.339844 L 102.605469 183.320312 C 102.558594 183.238281 102.492188 183.171875 102.40625 183.125 C 102.324219 183.078125 102.234375 183.054688 102.136719 183.054688 C 102.039062 183.054688 101.949219 183.078125 101.867188 183.125 C 101.785156 183.171875 101.71875 183.238281 101.667969 183.320312 C 100.652344 185.078125 100.144531 186.972656 100.148438 189.003906 C 100.148438 189.328125 100.148438 189.648438 100.1875 189.964844 C 100.214844 190.277344 100.292969 190.570312 100.433594 190.851562 C 100.570312 191.132812 100.753906 191.378906 100.984375 191.589844 C 101.214844 191.800781 101.472656 191.964844 101.765625 192.078125 C 102.054688 192.191406 102.359375 192.25 102.671875 192.25 Z M 102.671875 192.25 " fill-opacity="1" fill-rule="nonzero"/></g><path fill="#ffffff" d="M 111.890625 184.152344 L 113.761719 184.152344 C 113.820312 184.140625 113.882812 184.132812 113.941406 184.132812 L 120.886719 184.132812 C 120.980469 184.132812 121.070312 184.109375 121.152344 184.058594 C 121.238281 184.011719 121.300781 183.945312 121.351562 183.859375 C 121.398438 183.777344 121.421875 183.6875 121.421875 183.589844 C 121.421875 183.496094 121.394531 183.40625 121.347656 183.320312 C 120.15625 181.257812 118.480469 179.71875 116.320312 178.707031 C 116.039062 178.578125 115.742188 178.503906 115.433594 178.484375 C 115.125 178.464844 114.824219 178.503906 114.527344 178.597656 C 114.234375 178.691406 113.964844 178.835938 113.726562 179.03125 C 113.484375 179.222656 113.285156 179.453125 113.132812 179.722656 L 111.222656 183 C 111.074219 183.257812 111.074219 183.515625 111.222656 183.769531 C 111.371094 184.027344 111.59375 184.15625 111.890625 184.152344 Z M 111.890625 184.152344 " fill-opacity="1" fill-rule="nonzero"/><g clip-path="url(#992ac80a14)"><path fill="#ffffff" d="M 120.34375 185.757812 L 116.566406 185.757812 C 116.273438 185.753906 116.050781 185.882812 115.902344 186.140625 C 115.753906 186.394531 115.753906 186.652344 115.902344 186.910156 L 116.847656 188.53125 C 116.882812 188.574219 116.914062 188.617188 116.941406 188.664062 L 120.410156 194.683594 C 120.460938 194.765625 120.527344 194.832031 120.609375 194.878906 C 120.691406 194.925781 120.78125 194.953125 120.878906 194.953125 C 120.976562 194.953125 121.066406 194.925781 121.148438 194.878906 C 121.234375 194.832031 121.300781 194.765625 121.347656 194.683594 C 122.363281 192.925781 122.871094 191.03125 122.871094 189.003906 C 122.871094 188.679688 122.871094 188.355469 122.828125 188.039062 C 122.804688 187.730469 122.722656 187.433594 122.582031 187.152344 C 122.445312 186.871094 122.261719 186.625 122.03125 186.414062 C 121.800781 186.203125 121.542969 186.039062 121.25 185.925781 C 120.960938 185.8125 120.65625 185.757812 120.34375 185.757812 Z M 120.34375 185.757812 " fill-opacity="1" fill-rule="nonzero"/></g><path fill="#ffffff" d="M 111.101562 193.871094 L 102.128906 193.871094 C 102.035156 193.871094 101.945312 193.898438 101.863281 193.945312 C 101.777344 193.996094 101.714844 194.058594 101.664062 194.144531 C 101.617188 194.226562 101.59375 194.316406 101.59375 194.414062 C 101.59375 194.511719 101.621094 194.601562 101.667969 194.683594 C 102.859375 196.746094 104.535156 198.285156 106.695312 199.296875 C 106.976562 199.425781 107.273438 199.5 107.582031 199.519531 C 107.890625 199.539062 108.191406 199.5 108.488281 199.40625 C 108.78125 199.3125 109.050781 199.167969 109.292969 198.976562 C 109.53125 198.78125 109.730469 198.550781 109.886719 198.28125 L 111.769531 195.035156 C 111.921875 194.777344 111.925781 194.519531 111.777344 194.257812 C 111.628906 193.996094 111.402344 193.867188 111.101562 193.871094 Z M 111.101562 193.871094 " fill-opacity="1" fill-rule="nonzero"/><g clip-path="url(#fc786f5bce)"><path fill="#ffffff" d="M 116.855469 191.773438 C 116.785156 191.65625 116.691406 191.5625 116.574219 191.496094 C 116.457031 191.425781 116.328125 191.390625 116.191406 191.390625 C 116.054688 191.390625 115.925781 191.425781 115.808594 191.496094 C 115.6875 191.5625 115.59375 191.65625 115.523438 191.773438 L 114.546875 193.464844 L 114.507812 193.546875 L 111.039062 199.550781 C 110.929688 199.734375 110.925781 199.914062 111.03125 200.097656 C 111.140625 200.28125 111.296875 200.367188 111.507812 200.363281 C 113.886719 200.367188 116.050781 199.691406 118 198.335938 C 118.257812 198.15625 118.472656 197.9375 118.648438 197.679688 C 118.820312 197.417969 118.941406 197.136719 119.011719 196.832031 C 119.078125 196.527344 119.089844 196.21875 119.042969 195.910156 C 118.996094 195.601562 118.894531 195.3125 118.738281 195.039062 Z M 116.855469 191.773438 " fill-opacity="1" fill-rule="nonzero"/></g><g fill="#000000" fill-opacity="1"><g transform="translate(180.192386, 236.063194)"><g><path d="M 7.449219 -10.523438 C 8.222656 -13.285156 9.066406 -15.730469 10.019531 -17.855469 C 12.027344 -22.203125 13.917969 -24.484375 15.675781 -24.671875 C 16.769531 -24.785156 17.539062 -23.707031 17.96875 -21.433594 C 18.398438 -19.140625 18.480469 -15.929688 18.191406 -11.78125 C 16.800781 -11.671875 15.1875 -11.5 13.394531 -11.289062 C 11.605469 -11.0625 9.871094 -10.839844 8.207031 -10.625 C 7.949219 -10.578125 7.691406 -10.550781 7.449219 -10.523438 Z M 23.042969 -11.398438 C 22.5625 -11.855469 21.164062 -11.984375 18.839844 -11.832031 C 18.988281 -13.773438 19.039062 -15.59375 19.011719 -17.257812 C 18.984375 -18.921875 18.847656 -20.367188 18.621094 -21.613281 C 18.398438 -22.84375 18.050781 -23.800781 17.589844 -24.460938 C 17.125 -25.125 16.515625 -25.414062 15.773438 -25.335938 C 14.203125 -25.167969 12.613281 -23.746094 11.027344 -21.066406 C 9.4375 -18.390625 8.019531 -14.851562 6.785156 -10.4375 C 4.296875 -10.097656 1.839844 -9.796875 -0.566406 -9.539062 C -0.660156 -9.53125 -0.730469 -9.484375 -0.796875 -9.421875 C -0.882812 -9.355469 -0.929688 -9.277344 -0.941406 -9.183594 C -0.949219 -9.089844 -0.9375 -8.996094 -0.878906 -8.945312 C -0.816406 -8.894531 -0.757812 -8.867188 -0.664062 -8.875 C 1.703125 -9.128906 4.125 -9.421875 6.597656 -9.761719 C 5.847656 -6.96875 5.214844 -3.941406 4.699219 -0.6875 C 4.691406 -0.59375 4.699219 -0.5 4.761719 -0.449219 C 4.824219 -0.402344 4.882812 -0.371094 4.976562 -0.378906 C 5.066406 -0.390625 5.15625 -0.4375 5.222656 -0.5 C 5.292969 -0.5625 5.339844 -0.660156 5.367188 -0.757812 C 5.863281 -3.972656 6.496094 -7 7.261719 -9.832031 C 7.59375 -9.886719 7.945312 -9.921875 8.296875 -9.980469 C 11.816406 -10.464844 15.089844 -10.851562 18.148438 -11.121094 C 17.929688 -8.273438 17.554688 -5.105469 17.011719 -1.585938 C 16.992188 -1.433594 17.039062 -1.347656 17.136719 -1.300781 C 17.234375 -1.253906 17.328125 -1.265625 17.449219 -1.332031 C 17.554688 -1.402344 17.621094 -1.5 17.660156 -1.65625 C 18.171875 -4.910156 18.546875 -8.074219 18.800781 -11.152344 C 20.863281 -11.296875 22.089844 -11.203125 22.5 -10.875 C 22.519531 -10.855469 22.519531 -10.855469 22.539062 -10.839844 C 22.542969 -10.820312 22.542969 -10.820312 22.542969 -10.804688 L 22.546875 -10.785156 C 22.535156 -10.691406 22.546875 -10.597656 22.609375 -10.546875 C 22.652344 -10.496094 22.730469 -10.46875 22.820312 -10.476562 C 22.914062 -10.488281 22.984375 -10.53125 23.070312 -10.597656 C 23.136719 -10.660156 23.183594 -10.757812 23.191406 -10.855469 C 23.203125 -10.929688 23.210938 -11.023438 23.203125 -11.117188 C 23.175781 -11.207031 23.125 -11.316406 23.042969 -11.398438 Z M 23.042969 -11.398438 "/></g></g></g><g fill="#000000" fill-opacity="1"><g transform="translate(207.095428, 233.198729)"><g><path d="M 0.320312 -10.703125 C 0.210938 -10.691406 0.101562 -10.640625 0.015625 -10.574219 C -0.246094 -10.378906 -0.421875 -10.117188 -0.550781 -9.75 C -0.679688 -9.378906 -0.738281 -9.035156 -0.703125 -8.722656 C -0.695312 -8.628906 -0.664062 -8.519531 -0.597656 -8.414062 C -0.546875 -8.308594 -0.46875 -8.261719 -0.339844 -8.273438 C -0.265625 -8.28125 -0.15625 -8.332031 -0.0195312 -8.4375 C 0.101562 -8.542969 0.265625 -8.75 0.476562 -9.054688 C 0.667969 -9.355469 0.90625 -9.773438 1.203125 -10.328125 C 1.097656 -10.429688 0.957031 -10.527344 0.796875 -10.601562 C 0.640625 -10.679688 0.488281 -10.71875 0.320312 -10.703125 Z M 2.273438 -8.53125 C 1.996094 -8.839844 1.828125 -9.363281 1.769531 -10.105469 C 0.949219 -8.503906 0.214844 -7.660156 -0.433594 -7.589844 C -0.933594 -7.535156 -1.246094 -7.839844 -1.351562 -8.484375 C -1.398438 -8.910156 -1.316406 -9.386719 -1.128906 -9.910156 C -0.941406 -10.417969 -0.648438 -10.824219 -0.246094 -11.109375 C -0.0390625 -11.261719 0.214844 -11.34375 0.527344 -11.378906 C 0.824219 -11.410156 1.15625 -11.296875 1.539062 -11.019531 C 1.617188 -11.195312 1.707031 -11.390625 1.796875 -11.609375 C 1.929688 -13.15625 2.261719 -15.511719 2.800781 -18.675781 C 2.972656 -19.722656 3.167969 -20.867188 3.351562 -22.121094 C 3.359375 -22.21875 3.410156 -22.296875 3.496094 -22.363281 C 3.5625 -22.425781 3.652344 -22.472656 3.746094 -22.484375 C 3.835938 -22.492188 3.898438 -22.460938 3.957031 -22.410156 C 4 -22.359375 4.027344 -22.289062 4.019531 -22.195312 C 3.816406 -20.9375 3.621094 -19.773438 3.453125 -18.726562 C 2.957031 -15.8125 2.652344 -13.589844 2.5 -12.039062 C 2.347656 -10.46875 2.453125 -9.488281 2.816406 -9.058594 C 3.03125 -8.800781 3.453125 -8.714844 4.0625 -8.78125 C 4.617188 -8.839844 5.179688 -9.011719 5.726562 -9.3125 C 6.273438 -9.613281 6.78125 -9.949219 7.25 -10.316406 C 7.714844 -10.683594 8.128906 -11.007812 8.472656 -11.308594 C 8.488281 -11.328125 8.488281 -11.328125 8.507812 -11.332031 C 8.589844 -11.414062 8.675781 -11.496094 8.761719 -11.5625 C 8.847656 -11.628906 8.921875 -11.65625 9.015625 -11.664062 C 9.109375 -11.65625 9.167969 -11.625 9.210938 -11.554688 C 9.253906 -11.503906 9.261719 -11.429688 9.253906 -11.335938 C 9.226562 -11.238281 9.179688 -11.160156 9.09375 -11.09375 C 9.007812 -11.027344 8.921875 -10.945312 8.835938 -10.859375 C 8.820312 -10.859375 8.820312 -10.859375 8.820312 -10.839844 C 8.445312 -10.519531 7.996094 -10.152344 7.496094 -9.761719 C 6.996094 -9.355469 6.433594 -8.996094 5.832031 -8.6875 C 5.230469 -8.359375 4.597656 -8.164062 3.949219 -8.09375 C 3.152344 -8.007812 2.59375 -8.15625 2.273438 -8.53125 Z M 2.273438 -8.53125 "/></g></g></g><g fill="#000000" fill-opacity="1"><g transform="translate(216.920405, 232.152627)"><g><path d="M 2.65625 -11.605469 C 2.84375 -11.625 2.941406 -11.5625 2.960938 -11.394531 L 2.945312 -11.167969 C 2.996094 -10.707031 3.601562 -10.472656 4.742188 -10.480469 L 5.410156 -10.53125 C 6.59375 -10.660156 7.886719 -11.003906 9.285156 -11.582031 L 9.375 -11.609375 C 9.523438 -11.625 9.625 -11.5625 9.65625 -11.414062 C 9.679688 -11.210938 9.582031 -11.070312 9.390625 -10.957031 C 7.898438 -10.347656 6.535156 -9.980469 5.296875 -9.847656 C 4.257812 -9.734375 3.484375 -9.804688 2.992188 -10.03125 C 2.855469 -10.09375 2.738281 -10.15625 2.632812 -10.238281 C 2.460938 -9.769531 2.207031 -9.332031 1.894531 -8.921875 C 1.355469 -8.171875 0.820312 -7.777344 0.320312 -7.726562 C -0.0703125 -7.683594 -0.363281 -7.820312 -0.582031 -8.117188 C -0.820312 -8.410156 -0.945312 -8.714844 -0.996094 -9.007812 C -1.042969 -9.285156 -1.0625 -9.46875 -1.070312 -9.523438 C -1.117188 -9.949219 -1.105469 -10.398438 -1.027344 -10.875 C -0.996094 -11.105469 -0.859375 -11.230469 -0.65625 -11.253906 C -0.488281 -11.269531 -0.386719 -11.207031 -0.371094 -11.058594 L -0.378906 -10.945312 C -0.425781 -10.511719 -0.441406 -10.132812 -0.40625 -9.78125 C -0.378906 -9.542969 -0.335938 -9.304688 -0.257812 -9.105469 C -0.0742188 -8.601562 0.140625 -8.363281 0.417969 -8.390625 C 0.695312 -8.421875 1.035156 -8.71875 1.460938 -9.308594 C 1.851562 -9.855469 2.121094 -10.5 2.285156 -11.246094 C 2.335938 -11.460938 2.453125 -11.582031 2.65625 -11.605469 Z M 2.65625 -11.605469 "/></g></g></g><g fill="#000000" fill-opacity="1"><g transform="translate(227.059928, 231.073035)"><g><path d="M -0.183594 -10.160156 C 0.847656 -10.140625 1.542969 -10.289062 1.867188 -10.585938 C 1.917969 -10.628906 1.953125 -10.667969 1.96875 -10.691406 C 1.984375 -10.710938 1.984375 -10.710938 1.984375 -10.730469 C 1.980469 -10.746094 1.941406 -10.78125 1.863281 -10.808594 C 1.785156 -10.839844 1.652344 -10.84375 1.46875 -10.824219 C 1.078125 -10.78125 0.75 -10.710938 0.480469 -10.589844 C 0.214844 -10.464844 -0.0117188 -10.3125 -0.183594 -10.160156 Z M 1.265625 -7.808594 L 1.042969 -7.785156 C -0.683594 -7.65625 -1.484375 -8.152344 -1.328125 -9.308594 C -1.300781 -9.574219 -1.164062 -9.871094 -0.953125 -10.171875 C -0.742188 -10.476562 -0.417969 -10.773438 0.00390625 -11.023438 C 0.410156 -11.273438 0.9375 -11.421875 1.566406 -11.488281 C 2.140625 -11.550781 2.488281 -11.417969 2.621094 -11.078125 C 2.699219 -10.84375 2.632812 -10.59375 2.417969 -10.328125 C 2.203125 -10.058594 1.851562 -9.855469 1.34375 -9.6875 C 0.824219 -9.5 0.152344 -9.449219 -0.65625 -9.492188 L -0.679688 -9.378906 C -0.726562 -8.941406 -0.546875 -8.664062 -0.144531 -8.554688 C 0.246094 -8.429688 0.675781 -8.402344 1.160156 -8.453125 C 3.351562 -8.609375 5.753906 -9.578125 8.355469 -11.332031 C 8.445312 -11.398438 8.515625 -11.40625 8.613281 -11.398438 C 8.6875 -11.386719 8.75 -11.335938 8.777344 -11.265625 C 8.804688 -11.175781 8.8125 -11.101562 8.78125 -11.023438 C 8.738281 -10.925781 8.6875 -10.863281 8.601562 -10.796875 C 6.074219 -9.050781 3.613281 -8.058594 1.265625 -7.808594 Z M 1.265625 -7.808594 "/></g></g></g><g fill="#000000" fill-opacity="1"><g transform="translate(236.366827, 230.082096)"><g><path d="M -1.066406 -7.558594 C -1.121094 -7.554688 -1.179688 -7.566406 -1.21875 -7.582031 C -1.277344 -7.613281 -1.320312 -7.664062 -1.347656 -7.734375 C -1.375 -7.808594 -1.386719 -7.9375 -1.367188 -8.109375 C -1.367188 -8.277344 -1.320312 -8.542969 -1.265625 -8.886719 C -1.207031 -9.210938 -1.140625 -9.648438 -1.03125 -10.203125 L -0.882812 -10.929688 C -0.875 -11.023438 -0.828125 -11.105469 -0.738281 -11.167969 C -0.671875 -11.234375 -0.601562 -11.277344 -0.507812 -11.289062 C -0.414062 -11.277344 -0.335938 -11.25 -0.277344 -11.199219 C -0.234375 -11.148438 -0.222656 -11.054688 -0.230469 -10.960938 L -0.378906 -10.234375 C -0.511719 -9.566406 -0.601562 -8.992188 -0.683594 -8.535156 C -0.648438 -8.558594 -0.613281 -8.582031 -0.578125 -8.601562 C -0.0820312 -9.03125 0.46875 -9.480469 1.074219 -9.957031 C 1.679688 -10.417969 2.269531 -10.835938 2.851562 -11.195312 C 3.429688 -11.558594 3.949219 -11.761719 4.394531 -11.808594 C 4.636719 -11.835938 4.828125 -11.78125 4.972656 -11.664062 C 5.097656 -11.546875 5.191406 -11.371094 5.265625 -11.171875 C 5.324219 -10.972656 5.367188 -10.753906 5.410156 -10.550781 C 5.457031 -10.277344 5.539062 -10.023438 5.621094 -9.789062 C 5.703125 -9.554688 5.835938 -9.359375 6.015625 -9.230469 C 6.199219 -9.082031 6.503906 -9.039062 6.894531 -9.082031 C 7.726562 -9.167969 8.484375 -9.4375 9.167969 -9.882812 C 9.851562 -10.3125 10.507812 -10.8125 11.160156 -11.371094 L 11.488281 -11.609375 C 11.578125 -11.675781 11.648438 -11.71875 11.742188 -11.710938 C 11.835938 -11.703125 11.894531 -11.671875 11.941406 -11.601562 C 11.984375 -11.53125 11.992188 -11.457031 11.964844 -11.363281 C 11.9375 -11.265625 11.890625 -11.183594 11.804688 -11.121094 L 11.492188 -10.878906 C 11.027344 -10.496094 10.5625 -10.125 10.074219 -9.792969 C 9.585938 -9.441406 9.078125 -9.144531 8.539062 -8.902344 C 7.988281 -8.636719 7.40625 -8.480469 6.777344 -8.414062 C 6.242188 -8.355469 5.820312 -8.425781 5.558594 -8.621094 C 5.292969 -8.816406 5.097656 -9.058594 4.992188 -9.363281 C 4.882812 -9.671875 4.816406 -9.964844 4.765625 -10.257812 C 4.714844 -10.570312 4.652344 -10.808594 4.578125 -10.949219 C 4.511719 -11.074219 4.410156 -11.136719 4.28125 -11.125 C 3.929688 -11.085938 3.480469 -10.890625 2.9375 -10.550781 C 2.394531 -10.210938 1.835938 -9.816406 1.269531 -9.363281 C 0.699219 -8.90625 0.179688 -8.496094 -0.25 -8.132812 C -0.472656 -7.960938 -0.664062 -7.808594 -0.835938 -7.660156 C -0.921875 -7.59375 -0.992188 -7.566406 -1.066406 -7.558594 Z M -1.066406 -7.558594 "/></g></g></g><g fill="#000000" fill-opacity="1"><g transform="translate(248.8377, 228.754276)"><g><path d="M 1.167969 -21.890625 C 1 -20.824219 0.84375 -19.835938 0.699219 -18.921875 L 9.933594 -19.902344 C 10.027344 -19.914062 10.085938 -19.882812 10.148438 -19.832031 C 10.207031 -19.785156 10.21875 -19.691406 10.210938 -19.597656 C 10.199219 -19.5 10.152344 -19.421875 10.085938 -19.359375 C 10 -19.273438 9.910156 -19.226562 9.820312 -19.21875 L 0.585938 -18.234375 C 0.117188 -15.414062 -0.195312 -13.25 -0.351562 -11.734375 C -0.503906 -10.164062 -0.398438 -9.183594 -0.015625 -8.757812 C 0.199219 -8.5 0.601562 -8.410156 1.210938 -8.476562 C 1.765625 -8.535156 2.3125 -8.707031 2.84375 -8.988281 C 3.355469 -9.265625 3.847656 -9.578125 4.292969 -9.945312 C 4.742188 -10.292969 5.140625 -10.617188 5.5 -10.933594 L 5.515625 -10.9375 C 5.636719 -11.042969 5.738281 -11.148438 5.839844 -11.234375 C 5.925781 -11.296875 5.996094 -11.34375 6.09375 -11.335938 C 6.1875 -11.328125 6.246094 -11.296875 6.289062 -11.242188 C 6.332031 -11.171875 6.339844 -11.101562 6.332031 -11.003906 C 6.304688 -10.910156 6.257812 -10.828125 6.171875 -10.761719 C 6.085938 -10.679688 5.984375 -10.59375 5.882812 -10.488281 C 5.863281 -10.488281 5.863281 -10.488281 5.847656 -10.46875 C 5.488281 -10.148438 5.074219 -9.804688 4.574219 -9.414062 C 4.074219 -9.023438 3.53125 -8.667969 2.945312 -8.359375 C 2.359375 -8.054688 1.746094 -7.859375 1.117188 -7.792969 C 0.320312 -7.707031 -0.238281 -7.855469 -0.558594 -8.230469 C -1.003906 -8.707031 -1.164062 -9.71875 -1.035156 -11.289062 C -0.894531 -12.800781 -0.578125 -15.097656 -0.0625 -18.164062 L -4.910156 -17.648438 C -5.003906 -17.640625 -5.0625 -17.671875 -5.109375 -17.742188 C -5.167969 -17.789062 -5.195312 -17.863281 -5.1875 -17.957031 C -5.160156 -18.054688 -5.113281 -18.152344 -5.046875 -18.214844 C -4.976562 -18.277344 -4.890625 -18.324219 -4.796875 -18.335938 L 0.0507812 -18.851562 C 0.199219 -19.765625 0.355469 -20.753906 0.519531 -21.820312 C 0.53125 -21.914062 0.578125 -21.996094 0.664062 -22.0625 C 0.730469 -22.125 0.800781 -22.167969 0.894531 -22.179688 C 0.988281 -22.1875 1.066406 -22.160156 1.125 -22.109375 C 1.167969 -22.058594 1.175781 -21.984375 1.167969 -21.890625 Z M 1.167969 -21.890625 "/></g></g></g><g fill="#000000" fill-opacity="1"><g transform="translate(255.609718, 228.033234)"><g><path d="M 4.164062 -11.523438 C 4.261719 -11.664062 4.363281 -11.769531 4.433594 -11.792969 C 4.523438 -11.824219 4.597656 -11.832031 4.679688 -11.785156 C 4.738281 -11.753906 4.761719 -11.699219 4.785156 -11.644531 C 4.789062 -11.609375 4.796875 -11.550781 4.800781 -11.515625 L 4.777344 -11.382812 C 4.703125 -11.019531 4.667969 -10.640625 4.667969 -10.285156 C 4.667969 -9.929688 4.777344 -9.621094 5.007812 -9.386719 C 5.238281 -9.148438 5.664062 -9.042969 6.277344 -9.054688 C 7.078125 -9.121094 7.886719 -9.429688 8.742188 -10.007812 C 9.597656 -10.566406 10.359375 -11.171875 11.023438 -11.785156 C 11.109375 -11.851562 11.179688 -11.875 11.273438 -11.886719 C 11.367188 -11.878906 11.425781 -11.847656 11.488281 -11.796875 C 11.535156 -11.726562 11.542969 -11.652344 11.53125 -11.558594 C 11.507812 -11.460938 11.457031 -11.382812 11.371094 -11.316406 C 10.636719 -10.660156 9.84375 -10.03125 8.988281 -9.453125 C 8.117188 -8.855469 7.234375 -8.5 6.367188 -8.390625 C 6.277344 -8.378906 6.203125 -8.371094 6.125 -8.382812 C 5.304688 -8.367188 4.742188 -8.535156 4.464844 -8.878906 C 4.167969 -9.203125 4.011719 -9.597656 4.019531 -10.066406 C 4.007812 -10.175781 4.015625 -10.273438 4.003906 -10.363281 C 3.660156 -9.914062 3.308594 -9.542969 2.964844 -9.242188 C 2.386719 -8.714844 1.863281 -8.339844 1.382812 -8.121094 C 0.898438 -7.898438 0.519531 -7.765625 0.207031 -7.734375 C 0.113281 -7.722656 0.0195312 -7.714844 -0.0742188 -7.722656 C -1.109375 -7.78125 -1.375 -8.855469 -0.902344 -10.925781 C -0.875 -11.023438 -0.828125 -11.121094 -0.742188 -11.1875 C -0.675781 -11.25 -0.601562 -11.277344 -0.507812 -11.269531 C -0.414062 -11.277344 -0.335938 -11.25 -0.292969 -11.199219 C -0.25 -11.128906 -0.238281 -11.035156 -0.246094 -10.941406 C -0.386719 -10.328125 -0.46875 -9.851562 -0.46875 -9.511719 C -0.46875 -9.15625 -0.425781 -8.917969 -0.351562 -8.757812 C -0.277344 -8.597656 -0.191406 -8.496094 -0.09375 -8.449219 C 0.00390625 -8.402344 0.078125 -8.394531 0.152344 -8.402344 C 0.402344 -8.332031 0.90625 -8.535156 1.664062 -8.972656 C 2.40625 -9.390625 3.234375 -10.246094 4.164062 -11.523438 Z M 4.164062 -11.523438 "/></g></g></g><g fill="#000000" fill-opacity="1"><g transform="translate(267.618022, 226.754666)"><g><path d="M -0.789062 -7.589844 C -0.917969 -7.574219 -1.015625 -7.621094 -1.101562 -7.707031 C -1.332031 -7.941406 -1.300781 -8.882812 -1.007812 -10.523438 L -0.976562 -10.75 C -0.96875 -10.84375 -0.921875 -10.945312 -0.835938 -11.007812 C -0.765625 -11.074219 -0.679688 -11.121094 -0.585938 -11.128906 C -0.492188 -11.140625 -0.433594 -11.109375 -0.371094 -11.058594 C -0.328125 -11.007812 -0.320312 -10.914062 -0.328125 -10.820312 L -0.359375 -10.59375 C -0.40625 -10.324219 -0.464844 -9.980469 -0.511719 -9.566406 C -0.558594 -9.128906 -0.597656 -8.769531 -0.605469 -8.488281 C -0.476562 -8.707031 -0.351562 -8.925781 -0.230469 -9.183594 C -0.0585938 -9.519531 0.128906 -9.875 0.335938 -10.214844 C 0.542969 -10.558594 0.753906 -10.859375 1.007812 -11.113281 C 1.242188 -11.363281 1.507812 -11.503906 1.804688 -11.535156 C 2.007812 -11.554688 2.179688 -11.535156 2.316406 -11.457031 C 2.457031 -11.378906 2.5625 -11.277344 2.667969 -11.15625 C 2.769531 -11.074219 2.894531 -10.976562 3.03125 -10.898438 C 3.171875 -10.800781 3.351562 -10.726562 3.582031 -10.65625 C 3.945312 -10.582031 4.613281 -10.617188 5.558594 -10.734375 C 6.5 -10.855469 7.449219 -11.066406 8.445312 -11.378906 C 8.535156 -11.40625 8.628906 -11.398438 8.691406 -11.367188 C 8.75 -11.320312 8.796875 -11.25 8.804688 -11.15625 C 8.796875 -11.0625 8.769531 -10.984375 8.71875 -10.902344 C 8.65625 -10.820312 8.585938 -10.757812 8.496094 -10.730469 C 7.480469 -10.417969 6.476562 -10.179688 5.460938 -10.050781 C 4.445312 -9.925781 3.738281 -9.90625 3.296875 -9.988281 C 3.007812 -10.070312 2.773438 -10.175781 2.589844 -10.289062 C 2.410156 -10.402344 2.269531 -10.496094 2.164062 -10.617188 C 2.0625 -10.699219 1.996094 -10.769531 1.9375 -10.816406 C 1.875 -10.847656 1.800781 -10.859375 1.707031 -10.847656 C 1.484375 -10.824219 1.246094 -10.613281 1.007812 -10.214844 C 0.753906 -9.792969 0.535156 -9.394531 0.351562 -9.019531 C 0.152344 -8.605469 -0.0390625 -8.269531 -0.214844 -8.003906 C -0.394531 -7.742188 -0.585938 -7.609375 -0.789062 -7.589844 Z M -0.789062 -7.589844 "/></g></g></g><g fill="#000000" fill-opacity="1"><g transform="translate(276.869412, 225.769637)"><g><path d="M -0.183594 -10.160156 C 0.847656 -10.140625 1.542969 -10.289062 1.867188 -10.585938 C 1.917969 -10.628906 1.953125 -10.667969 1.96875 -10.691406 C 1.984375 -10.710938 1.984375 -10.710938 1.984375 -10.730469 C 1.980469 -10.746094 1.941406 -10.78125 1.863281 -10.808594 C 1.785156 -10.839844 1.652344 -10.84375 1.46875 -10.824219 C 1.078125 -10.78125 0.75 -10.710938 0.480469 -10.589844 C 0.214844 -10.464844 -0.0117188 -10.3125 -0.183594 -10.160156 Z M 1.265625 -7.808594 L 1.042969 -7.785156 C -0.683594 -7.65625 -1.484375 -8.152344 -1.328125 -9.308594 C -1.300781 -9.574219 -1.164062 -9.871094 -0.953125 -10.171875 C -0.742188 -10.476562 -0.417969 -10.773438 0.00390625 -11.023438 C 0.410156 -11.273438 0.9375 -11.421875 1.566406 -11.488281 C 2.140625 -11.550781 2.488281 -11.417969 2.621094 -11.078125 C 2.699219 -10.84375 2.632812 -10.59375 2.417969 -10.328125 C 2.203125 -10.058594 1.851562 -9.855469 1.34375 -9.6875 C 0.824219 -9.5 0.152344 -9.449219 -0.65625 -9.492188 L -0.679688 -9.378906 C -0.726562 -8.941406 -0.546875 -8.664062 -0.144531 -8.554688 C 0.246094 -8.429688 0.675781 -8.402344 1.160156 -8.453125 C 3.351562 -8.609375 5.753906 -9.578125 8.355469 -11.332031 C 8.445312 -11.398438 8.515625 -11.40625 8.613281 -11.398438 C 8.6875 -11.386719 8.75 -11.335938 8.777344 -11.265625 C 8.804688 -11.175781 8.8125 -11.101562 8.78125 -11.023438 C 8.738281 -10.925781 8.6875 -10.863281 8.601562 -10.796875 C 6.074219 -9.050781 3.613281 -8.058594 1.265625 -7.808594 Z M 1.265625 -7.808594 "/></g></g></g><g fill="#000000" fill-opacity="1"><g transform="translate(286.176311, 224.778697)"><g><path d="M -0.789062 -7.589844 C -0.917969 -7.574219 -1.015625 -7.621094 -1.101562 -7.707031 C -1.332031 -7.941406 -1.300781 -8.882812 -1.007812 -10.523438 L -0.976562 -10.75 C -0.96875 -10.84375 -0.921875 -10.945312 -0.835938 -11.007812 C -0.765625 -11.074219 -0.679688 -11.121094 -0.585938 -11.128906 C -0.492188 -11.140625 -0.433594 -11.109375 -0.371094 -11.058594 C -0.328125 -11.007812 -0.320312 -10.914062 -0.328125 -10.820312 L -0.359375 -10.59375 C -0.40625 -10.324219 -0.464844 -9.980469 -0.511719 -9.566406 C -0.558594 -9.128906 -0.597656 -8.769531 -0.605469 -8.488281 C -0.476562 -8.707031 -0.351562 -8.925781 -0.230469 -9.183594 C -0.0585938 -9.519531 0.128906 -9.875 0.335938 -10.214844 C 0.542969 -10.558594 0.753906 -10.859375 1.007812 -11.113281 C 1.242188 -11.363281 1.507812 -11.503906 1.804688 -11.535156 C 2.007812 -11.554688 2.179688 -11.535156 2.316406 -11.457031 C 2.457031 -11.378906 2.5625 -11.277344 2.667969 -11.15625 C 2.769531 -11.074219 2.894531 -10.976562 3.03125 -10.898438 C 3.171875 -10.800781 3.351562 -10.726562 3.582031 -10.65625 C 3.945312 -10.582031 4.613281 -10.617188 5.558594 -10.734375 C 6.5 -10.855469 7.449219 -11.066406 8.445312 -11.378906 C 8.535156 -11.40625 8.628906 -11.398438 8.691406 -11.367188 C 8.75 -11.320312 8.796875 -11.25 8.804688 -11.15625 C 8.796875 -11.0625 8.769531 -10.984375 8.71875 -10.902344 C 8.65625 -10.820312 8.585938 -10.757812 8.496094 -10.730469 C 7.480469 -10.417969 6.476562 -10.179688 5.460938 -10.050781 C 4.445312 -9.925781 3.738281 -9.90625 3.296875 -9.988281 C 3.007812 -10.070312 2.773438 -10.175781 2.589844 -10.289062 C 2.410156 -10.402344 2.269531 -10.496094 2.164062 -10.617188 C 2.0625 -10.699219 1.996094 -10.769531 1.9375 -10.816406 C 1.875 -10.847656 1.800781 -10.859375 1.707031 -10.847656 C 1.484375 -10.824219 1.246094 -10.613281 1.007812 -10.214844 C 0.753906 -9.792969 0.535156 -9.394531 0.351562 -9.019531 C 0.152344 -8.605469 -0.0390625 -8.269531 -0.214844 -8.003906 C -0.394531 -7.742188 -0.585938 -7.609375 -0.789062 -7.589844 Z M -0.789062 -7.589844 "/></g></g></g><g fill="#000000" fill-opacity="1"><g transform="translate(295.427701, 223.793668)"><g><path d="M 1.609375 -7.75 C 1.519531 -7.683594 1.433594 -7.621094 1.347656 -7.554688 C 0.601562 -6.988281 0.0742188 -6.519531 -0.28125 -6.164062 C -0.636719 -5.789062 -0.847656 -5.503906 -0.941406 -5.328125 C -1.050781 -5.128906 -1.09375 -5.011719 -1.070312 -4.957031 C -1.085938 -4.917969 -1.082031 -4.882812 -1.058594 -4.847656 C -1.035156 -4.8125 -0.996094 -4.777344 -0.917969 -4.75 C -0.683594 -4.664062 -0.3125 -4.703125 0.191406 -4.886719 C 0.695312 -5.070312 1.261719 -5.394531 1.902344 -5.855469 C 2.265625 -6.136719 2.460938 -6.402344 2.496094 -6.628906 C 2.488281 -7.019531 2.191406 -7.382812 1.609375 -7.75 Z M -0.597656 -4.035156 C -0.875 -4.003906 -1.101562 -4.019531 -1.277344 -4.09375 C -1.609375 -4.226562 -1.75 -4.472656 -1.730469 -4.832031 C -1.664062 -5.625 -0.734375 -6.714844 1.066406 -8.085938 C 0.847656 -8.210938 0.609375 -8.355469 0.308594 -8.511719 C 0.015625 -8.648438 -0.265625 -8.824219 -0.566406 -8.996094 C -0.949219 -9.257812 -1.128906 -9.535156 -1.121094 -9.835938 C -1.132812 -10.117188 -1.066406 -10.367188 -0.9375 -10.550781 C -0.539062 -11.210938 0.128906 -11.804688 1.050781 -12.296875 C 1.96875 -12.785156 2.75 -13 3.410156 -12.976562 C 3.960938 -12.90625 4.195312 -12.613281 4.125 -12.0625 C 4.117188 -11.96875 4.066406 -11.886719 4 -11.824219 C 3.914062 -11.757812 3.824219 -11.710938 3.730469 -11.703125 C 3.640625 -11.691406 3.582031 -11.722656 3.539062 -11.773438 C 3.476562 -11.824219 3.449219 -11.894531 3.457031 -11.992188 C 3.46875 -12.066406 3.460938 -12.140625 3.4375 -12.195312 C 3.414062 -12.246094 3.3125 -12.292969 3.179688 -12.316406 C 2.675781 -12.320312 2.023438 -12.117188 1.261719 -11.71875 C 0.480469 -11.316406 -0.0703125 -10.867188 -0.375 -10.367188 C -0.4375 -10.265625 -0.464844 -10.152344 -0.449219 -10.019531 C -0.453125 -9.890625 -0.347656 -9.75 -0.125 -9.605469 C 0.15625 -9.429688 0.472656 -9.257812 0.8125 -9.070312 C 1.148438 -8.898438 1.449219 -8.726562 1.746094 -8.550781 C 2.972656 -9.335938 4.378906 -10.011719 5.945312 -10.589844 C 7.511719 -11.167969 8.917969 -11.523438 10.195312 -11.660156 C 10.285156 -11.667969 10.363281 -11.640625 10.425781 -11.589844 C 10.46875 -11.539062 10.476562 -11.445312 10.46875 -11.351562 C 10.460938 -11.257812 10.414062 -11.175781 10.34375 -11.113281 C 10.257812 -11.046875 10.171875 -11 10.078125 -10.992188 C 8.910156 -10.867188 7.617188 -10.542969 6.191406 -10.035156 C 4.75 -9.507812 3.449219 -8.902344 2.289062 -8.199219 C 2.894531 -7.792969 3.191406 -7.300781 3.15625 -6.738281 C 3.113281 -6.265625 2.785156 -5.816406 2.199219 -5.363281 C 1.160156 -4.578125 0.234375 -4.140625 -0.597656 -4.035156 Z M -0.597656 -4.035156 "/></g></g></g></svg>